<svg width="230" height="44" viewBox="0 0 230 44" fill="none" xmlns="http://www.w3.org/2000/svg">
<path fill-rule="evenodd" clip-rule="evenodd" d="M36.9469 29.3886C36.952 29.3542 36.9546 29.3207 36.9546 29.2864V14.7111C36.9546 14.6767 36.952 14.6432 36.9469 14.6114C37.9707 14.3072 38.7183 13.3592 38.7183 12.236C38.7183 10.8696 37.6111 9.76097 36.2465 9.76097C35.5848 9.76097 34.9866 10.0214 34.5412 10.4433C34.5146 10.4236 34.488 10.4047 34.4562 10.3875L28.1944 6.76513L28.1575 6.74365L21.8536 3.09897C21.8245 3.08178 21.7927 3.06717 21.7635 3.05514C21.8073 2.86779 21.8313 2.67529 21.8313 2.47505C21.8313 1.10604 20.7242 0 19.3596 0C17.9924 0 16.8878 1.10604 16.8878 2.47505C16.8878 2.67443 16.9101 2.86693 16.9556 3.05514C16.9239 3.06717 16.8921 3.08178 16.8629 3.09897L10.5591 6.74365H10.5616L4.26207 10.3875C4.23032 10.4047 4.20371 10.4244 4.17711 10.4433C3.73425 10.0222 3.13348 9.76097 2.47176 9.76097C1.10714 9.76097 0 10.8696 0 12.236C0 13.3592 0.746679 14.3063 1.77143 14.6114C1.76628 14.6432 1.76371 14.6776 1.76371 14.7111V29.2864C1.76371 29.3207 1.76628 29.3542 1.77143 29.3886C0.747537 29.6911 0 30.6382 0 31.7614C0 33.1278 1.10714 34.2365 2.47176 34.2365C3.13348 34.2365 3.73425 33.9786 4.17711 33.5541C4.20371 33.5756 4.23032 33.5953 4.26207 33.6125L10.5239 37.2323C10.5359 37.2392 10.5479 37.2469 10.5608 37.2538L16.8646 40.8985C16.8938 40.9156 16.9256 40.9303 16.9573 40.9449C16.911 41.1296 16.8895 41.3247 16.8895 41.525C16.8895 42.8914 17.9941 44 19.3613 44C20.7259 44 21.833 42.8914 21.833 41.525C21.833 41.3256 21.809 41.1305 21.7652 40.9449C21.7944 40.9303 21.8262 40.9156 21.8554 40.8985L28.1592 37.2538L34.4579 33.6117C34.4897 33.5945 34.5163 33.5747 34.5429 33.5532C34.9883 33.9769 35.5865 34.2356 36.2482 34.2356C37.6129 34.2356 38.72 33.127 38.72 31.7605C38.7183 30.639 37.9707 29.6911 36.9469 29.3886ZM35.5453 29.3886C35.1634 29.5003 34.8227 29.7032 34.5429 29.9687C34.5163 29.9472 34.4897 29.93 34.4579 29.9129L27.646 25.9734L27.5928 26.813C27.5825 27.058 27.5928 26.856 27.5584 27.5564L33.7499 31.1375C33.7816 31.1547 33.8108 31.1693 33.8426 31.1813C33.7988 31.3661 33.7748 31.5612 33.7748 31.7614C33.7748 31.9608 33.7988 32.1559 33.8426 32.3432C33.8134 32.3552 33.7816 32.3699 33.7524 32.387L27.4512 36.0291L27.4486 36.0317V36.0291L21.1447 39.6738C21.1156 39.691 21.0864 39.7099 21.0623 39.7297C20.7826 39.4641 20.4393 39.2622 20.0599 39.1496C20.0651 39.1178 20.0676 39.0834 20.0676 39.0499V31.5148C19.829 31.5242 19.593 31.5294 19.3596 31.5294C19.1261 31.5294 18.8875 31.5242 18.6489 31.5148V39.0499C18.6489 39.0843 18.6515 39.1178 18.6567 39.1496C18.2773 39.2613 17.9366 39.4641 17.6568 39.7297C17.6302 39.7099 17.601 39.691 17.5718 39.6738L11.2706 36.0291C11.256 36.0223 11.2439 36.0145 11.2319 36.0094L4.96498 32.387C4.9358 32.3699 4.90662 32.3552 4.87487 32.3432C4.92121 32.1559 4.94267 31.9608 4.94267 31.7614C4.94267 31.562 4.92035 31.3669 4.87487 31.1813C4.90662 31.1693 4.93838 31.1547 4.96756 31.1375L11.159 27.5564L11.1144 26.7701L11.0714 25.9734L4.2595 29.9129C4.23032 29.93 4.20114 29.9472 4.17453 29.9687C3.89474 29.7032 3.55402 29.5012 3.17467 29.3886C3.17982 29.3542 3.18239 29.3207 3.18239 29.2864V14.7111C3.18239 14.6767 3.17982 14.6432 3.17467 14.6114C3.55402 14.4971 3.89474 14.2968 4.17453 14.0296C4.20114 14.0511 4.23032 14.0708 4.2595 14.088L11.0714 18.0249L11.0929 17.6064L11.1144 17.1878C11.1144 17.1878 11.159 16.7152 11.159 16.4419L4.96756 12.8634C4.93838 12.8462 4.90662 12.829 4.87487 12.817C4.92121 12.6322 4.94267 12.4371 4.94267 12.2369C4.94267 12.0375 4.92035 11.8424 4.87487 11.6551C4.90662 11.643 4.9358 11.6284 4.96498 11.6138L11.2688 7.96914V7.96656L11.2714 7.96914L17.5727 4.32446C17.6019 4.30727 17.6311 4.28837 17.6577 4.2686C17.9349 4.53415 18.2782 4.73611 18.6575 4.84869C18.6524 4.88306 18.6498 4.91658 18.6498 4.95096V12.4861C18.8884 12.4741 19.127 12.4689 19.3604 12.4689C19.5939 12.4689 19.8299 12.4741 20.0685 12.4861V4.9501C20.0685 4.91572 20.0659 4.88221 20.0608 4.84783C20.4401 4.73611 20.7834 4.53329 21.0632 4.26774C21.0872 4.28751 21.1164 4.30641 21.1456 4.3236L27.4494 7.96828C27.4615 7.97516 27.4735 7.98289 27.4881 7.98977L33.7524 11.6121C33.7816 11.6267 33.8134 11.6413 33.8426 11.6534C33.7988 11.8407 33.7748 12.0358 33.7748 12.2352C33.7748 12.4345 33.7988 12.6296 33.8426 12.8153C33.8108 12.8273 33.7816 12.8445 33.7499 12.8617L27.5584 16.4402C27.5584 16.4402 27.5584 16.4402 27.5928 17.1449L27.646 18.0232L34.4579 14.0863C34.4897 14.0691 34.5163 14.0493 34.5429 14.0279C34.8227 14.296 35.1634 14.4954 35.5453 14.6097C35.5402 14.6415 35.5376 14.6758 35.5376 14.7094V29.2846C35.5385 29.3207 35.541 29.3551 35.5453 29.3886Z" fill="url(#paint0_linear_39_317)"/>
<path d="M24.9505 18.2938C24.8898 18.2938 24.8292 18.2959 24.7689 18.3002C24.5871 17.7205 24.2455 17.1975 23.7795 16.7953C23.1532 16.2545 22.3422 15.9691 21.5125 15.9998C20.6993 14.5739 19.179 13.6694 17.5516 13.6694C15.5072 13.6694 13.6982 15.0745 13.1552 17.0456C11.9786 17.5686 11.2051 18.7436 11.2051 20.0478C11.2051 21.3195 12.4008 22.4246 13.4604 22.9703V21.77C13.4604 20.9787 13.2828 20.3935 14.0742 20.3935C14.8655 20.3935 24.6009 20.3935 24.6009 20.3935C25.3923 20.3935 25.2734 20.9787 25.2734 21.77V23.2233C26.3059 22.9084 27.47 21.9474 27.47 20.8132C27.47 19.424 26.3397 18.2938 24.9505 18.2938Z" fill="#8FBFFA"/>
<path d="M24.229 20.8799H14.4762C14.3401 20.8799 14.2095 20.934 14.1132 21.0302C14.017 21.1265 13.9629 21.2571 13.9629 21.3932V23.4464C13.9629 23.5825 14.017 23.7131 14.1132 23.8094C14.2095 23.9056 14.3401 23.9597 14.4762 23.9597H24.229C24.3651 23.9597 24.4957 23.9056 24.592 23.8094C24.6882 23.7131 24.7423 23.5825 24.7423 23.4464V21.3932C24.7423 21.2571 24.6882 21.1265 24.592 21.0302C24.4957 20.934 24.3651 20.8799 24.229 20.8799ZM16.1017 22.3342H15.4173C15.3492 22.3342 15.2839 22.3072 15.2358 22.2591C15.1876 22.2109 15.1606 22.1457 15.1606 22.0776C15.1606 22.0095 15.1876 21.9442 15.2358 21.8961C15.2839 21.848 15.3492 21.8209 15.4173 21.8209H16.1017C16.1697 21.8209 16.235 21.848 16.2831 21.8961C16.3313 21.9442 16.3583 22.0095 16.3583 22.0776C16.3583 22.1457 16.3313 22.2109 16.2831 22.2591C16.235 22.3072 16.1697 22.3342 16.1017 22.3342ZM17.9838 22.3342H17.2994C17.2313 22.3342 17.166 22.3072 17.1179 22.2591C17.0698 22.2109 17.0427 22.1457 17.0427 22.0776C17.0427 22.0095 17.0698 21.9442 17.1179 21.8961C17.166 21.848 17.2313 21.8209 17.2994 21.8209H17.9838C18.0519 21.8209 18.1171 21.848 18.1653 21.8961C18.2134 21.9442 18.2404 22.0095 18.2404 22.0776C18.2404 22.1457 18.2134 22.2109 18.1653 22.2591C18.1171 22.3072 18.0519 22.3342 17.9838 22.3342ZM21.1492 22.762C21.1492 22.8301 21.1221 22.8954 21.074 22.9435C21.0259 22.9916 20.9606 23.0187 20.8925 23.0187C20.8244 23.0187 20.7592 22.9916 20.711 22.9435C20.6629 22.8954 20.6359 22.8301 20.6359 22.762V22.0776C20.6359 22.0095 20.6629 21.9442 20.711 21.8961C20.7592 21.848 20.8244 21.8209 20.8925 21.8209C20.9606 21.8209 21.0259 21.848 21.074 21.8961C21.1221 21.9442 21.1492 22.0095 21.1492 22.0776V22.762ZM22.3469 22.762C22.3469 22.8301 22.3198 22.8954 22.2717 22.9435C22.2236 22.9916 22.1583 23.0187 22.0902 23.0187C22.0222 23.0187 21.9569 22.9916 21.9087 22.9435C21.8606 22.8954 21.8336 22.8301 21.8336 22.762V22.0776C21.8336 22.0095 21.8606 21.9442 21.9087 21.8961C21.9569 21.848 22.0222 21.8209 22.0902 21.8209C22.1583 21.8209 22.2236 21.848 22.2717 21.8961C22.3198 21.9442 22.3469 22.0095 22.3469 22.0776V22.762ZM23.5446 22.762C23.5446 22.8301 23.5176 22.8954 23.4694 22.9435C23.4213 22.9916 23.356 23.0187 23.2879 23.0187C23.2199 23.0187 23.1546 22.9916 23.1065 22.9435C23.0583 22.8954 23.0313 22.8301 23.0313 22.762V22.0776C23.0313 22.0095 23.0583 21.9442 23.1065 21.8961C23.1546 21.848 23.2199 21.8209 23.2879 21.8209C23.356 21.8209 23.4213 21.848 23.4694 21.8961C23.5176 21.9442 23.5446 22.0095 23.5446 22.0776V22.762Z" fill="url(#paint1_linear_39_317)"/>
<path d="M24.229 24.4976H14.4762C14.3401 24.4976 14.2095 24.5516 14.1132 24.6479C14.017 24.7442 13.9629 24.8747 13.9629 25.0109V27.0641C13.9629 27.2002 14.017 27.3308 14.1132 27.427C14.2095 27.5233 14.3401 27.5774 14.4762 27.5774H18.8393V26.6363C18.8395 26.4322 18.9207 26.2365 19.0651 26.0921C19.2094 25.9478 19.4051 25.8666 19.6093 25.8664C19.9853 25.8668 20.3475 25.7248 20.623 25.4689L20.7115 25.3871C20.8538 25.2553 21.0407 25.1821 21.2346 25.1821C21.4286 25.1821 21.6154 25.2553 21.7578 25.3871L21.8464 25.4692C22.122 25.725 22.4842 25.8669 22.8602 25.8664C23.0643 25.8666 23.26 25.9478 23.4044 26.0921C23.5487 26.2365 23.6299 26.4322 23.6301 26.6363V27.5774H24.229C24.3651 27.5774 24.4957 27.5233 24.592 27.427C24.6882 27.3308 24.7423 27.2002 24.7423 27.0641V25.0109C24.7423 24.8747 24.6882 24.7442 24.592 24.6479C24.4957 24.5516 24.3651 24.4976 24.229 24.4976ZM16.1017 25.9519H15.4173C15.3492 25.9519 15.2839 25.9249 15.2358 25.8768C15.1876 25.8286 15.1606 25.7633 15.1606 25.6953C15.1606 25.6272 15.1876 25.5619 15.2358 25.5138C15.2839 25.4657 15.3492 25.4386 15.4173 25.4386H16.1017C16.1697 25.4386 16.235 25.4657 16.2831 25.5138C16.3313 25.5619 16.3583 25.6272 16.3583 25.6953C16.3583 25.7633 16.3313 25.8286 16.2831 25.8768C16.235 25.9249 16.1697 25.9519 16.1017 25.9519ZM17.9838 25.9519H17.2994C17.2313 25.9519 17.166 25.9249 17.1179 25.8768C17.0698 25.8286 17.0427 25.7633 17.0427 25.6953C17.0427 25.6272 17.0698 25.5619 17.1179 25.5138C17.166 25.4657 17.2313 25.4386 17.2994 25.4386H17.9838C18.0519 25.4386 18.1171 25.4657 18.1653 25.5138C18.2134 25.5619 18.2404 25.6272 18.2404 25.6953C18.2404 25.7633 18.2134 25.8286 18.1653 25.8768C18.1171 25.9249 18.0519 25.9519 17.9838 25.9519Z" fill="#0066FF"/>
<path d="M24.229 24.4976H14.4762C14.3401 24.4976 14.2095 24.5516 14.1132 24.6479C14.017 24.7442 13.9629 24.8747 13.9629 25.0109V27.0641C13.9629 27.2002 14.017 27.3308 14.1132 27.427C14.2095 27.5233 14.3401 27.5774 14.4762 27.5774H18.8393V26.6363C18.8395 26.4322 18.9207 26.2365 19.0651 26.0921C19.2094 25.9478 19.4051 25.8666 19.6093 25.8664C19.9853 25.8668 20.3475 25.7248 20.623 25.4689L20.7115 25.3871C20.8538 25.2553 21.0407 25.1821 21.2346 25.1821C21.4286 25.1821 21.6154 25.2553 21.7578 25.3871L21.8464 25.4692C22.122 25.725 22.4842 25.8669 22.8602 25.8664C23.0643 25.8666 23.26 25.9478 23.4044 26.0921C23.5487 26.2365 23.6299 26.4322 23.6301 26.6363V27.5774H24.229C24.3651 27.5774 24.4957 27.5233 24.592 27.427C24.6882 27.3308 24.7423 27.2002 24.7423 27.0641V25.0109C24.7423 24.8747 24.6882 24.7442 24.592 24.6479C24.4957 24.5516 24.3651 24.4976 24.229 24.4976ZM16.1017 25.9519H15.4173C15.3492 25.9519 15.2839 25.9249 15.2358 25.8768C15.1876 25.8286 15.1606 25.7633 15.1606 25.6953C15.1606 25.6272 15.1876 25.5619 15.2358 25.5138C15.2839 25.4657 15.3492 25.4386 15.4173 25.4386H16.1017C16.1697 25.4386 16.235 25.4657 16.2831 25.5138C16.3313 25.5619 16.3583 25.6272 16.3583 25.6953C16.3583 25.7633 16.3313 25.8286 16.2831 25.8768C16.235 25.9249 16.1697 25.9519 16.1017 25.9519ZM17.9838 25.9519H17.2994C17.2313 25.9519 17.166 25.9249 17.1179 25.8768C17.0698 25.8286 17.0427 25.7633 17.0427 25.6953C17.0427 25.6272 17.0698 25.5619 17.1179 25.5138C17.166 25.4657 17.2313 25.4386 17.2994 25.4386H17.9838C18.0519 25.4386 18.1171 25.4657 18.1653 25.5138C18.2134 25.5619 18.2404 25.6272 18.2404 25.6953C18.2404 25.7633 18.2134 25.8286 18.1653 25.8768C18.1171 25.9249 18.0519 25.9519 17.9838 25.9519Z" fill="url(#paint2_linear_39_317)"/>
<path d="M24.229 24.4976H14.4762C14.3401 24.4976 14.2095 24.5516 14.1132 24.6479C14.017 24.7442 13.9629 24.8747 13.9629 25.0109V27.0641C13.9629 27.2002 14.017 27.3308 14.1132 27.427C14.2095 27.5233 14.3401 27.5774 14.4762 27.5774H18.8393V26.6363C18.8395 26.4322 18.9207 26.2365 19.0651 26.0921C19.2094 25.9478 19.4051 25.8666 19.6093 25.8664C19.9853 25.8668 20.3475 25.7248 20.623 25.4689L20.7115 25.3871C20.8538 25.2553 21.0407 25.1821 21.2346 25.1821C21.4286 25.1821 21.6154 25.2553 21.7578 25.3871L21.8464 25.4692C22.122 25.725 22.4842 25.8669 22.8602 25.8664C23.0643 25.8666 23.26 25.9478 23.4044 26.0921C23.5487 26.2365 23.6299 26.4322 23.6301 26.6363V27.5774H24.229C24.3651 27.5774 24.4957 27.5233 24.592 27.427C24.6882 27.3308 24.7423 27.2002 24.7423 27.0641V25.0109C24.7423 24.8747 24.6882 24.7442 24.592 24.6479C24.4957 24.5516 24.3651 24.4976 24.229 24.4976ZM16.1017 25.9519H15.4173C15.3492 25.9519 15.2839 25.9249 15.2358 25.8768C15.1876 25.8286 15.1606 25.7633 15.1606 25.6953C15.1606 25.6272 15.1876 25.5619 15.2358 25.5138C15.2839 25.4657 15.3492 25.4386 15.4173 25.4386H16.1017C16.1697 25.4386 16.235 25.4657 16.2831 25.5138C16.3313 25.5619 16.3583 25.6272 16.3583 25.6953C16.3583 25.7633 16.3313 25.8286 16.2831 25.8768C16.235 25.9249 16.1697 25.9519 16.1017 25.9519ZM17.9838 25.9519H17.2994C17.2313 25.9519 17.166 25.9249 17.1179 25.8768C17.0698 25.8286 17.0427 25.7633 17.0427 25.6953C17.0427 25.6272 17.0698 25.5619 17.1179 25.5138C17.166 25.4657 17.2313 25.4386 17.2994 25.4386H17.9838C18.0519 25.4386 18.1171 25.4657 18.1653 25.5138C18.2134 25.5619 18.2404 25.6272 18.2404 25.6953C18.2404 25.7633 18.2134 25.8286 18.1653 25.8768C18.1171 25.9249 18.0519 25.9519 17.9838 25.9519Z" fill="url(#paint3_linear_39_317)"/>
<path d="M22.8611 26.3798C22.3557 26.3803 21.8688 26.1894 21.4985 25.8456L21.4102 25.7638C21.3627 25.7198 21.3004 25.6953 21.2356 25.6953C21.1709 25.6953 21.1086 25.7198 21.0611 25.7638L20.9728 25.8457C20.6024 26.1896 20.1156 26.3804 19.6102 26.3798C19.5421 26.3798 19.4768 26.4068 19.4287 26.4549C19.3806 26.5031 19.3535 26.5683 19.3535 26.6364V28.0117C19.352 28.5611 19.5264 29.0965 19.8511 29.5396C20.1759 29.9828 20.634 30.3103 21.1583 30.4742C21.2084 30.49 21.2622 30.49 21.3123 30.4742C21.8368 30.3104 22.295 29.9829 22.6199 29.5398C22.9448 29.0967 23.1193 28.5612 23.1178 28.0117V26.6364C23.1178 26.5683 23.0907 26.5031 23.0426 26.4549C22.9945 26.4068 22.9292 26.3798 22.8611 26.3798ZM22.1016 27.7744L21.106 28.77C21.0578 28.8182 20.9926 28.8452 20.9245 28.8452C20.8564 28.8452 20.7912 28.8182 20.743 28.77L20.3697 28.3967C20.3216 28.3486 20.2946 28.2833 20.2946 28.2152C20.2946 28.1472 20.3216 28.0819 20.3697 28.0338C20.3935 28.0099 20.4218 27.991 20.453 27.9781C20.4841 27.9652 20.5175 27.9586 20.5512 27.9586C20.585 27.9586 20.6183 27.9652 20.6495 27.9781C20.6806 27.991 20.7089 28.0099 20.7328 28.0338L20.9246 28.2256L21.7385 27.4115C21.7866 27.3633 21.8519 27.3363 21.92 27.3363C21.9881 27.3363 22.0534 27.3633 22.1015 27.4114C22.1497 27.4595 22.1767 27.5248 22.1767 27.5929C22.1767 27.661 22.1497 27.7263 22.1016 27.7744Z" fill="#FF7A41"/>
<path d="M223.226 32C221.199 32 219.646 31.1963 218.568 29.589L217.089 31.726H215.527V12H219.829V19.3151C220.249 18.7671 220.778 18.3196 221.418 17.9726C222.057 17.6256 222.842 17.4521 223.774 17.4521C224.76 17.4521 225.664 17.6895 226.486 18.1644C227.326 18.621 227.993 19.3516 228.486 20.3562C228.979 21.3425 229.226 22.621 229.226 24.1918V24.7945C229.226 26.4201 228.943 27.7717 228.377 28.8493C227.829 29.9087 227.098 30.7032 226.185 31.2329C225.29 31.7443 224.304 32 223.226 32ZM222.267 29.2603C222.724 29.2603 223.126 29.1416 223.473 28.9041C223.838 28.6667 224.121 28.3196 224.322 27.863C224.541 27.4064 224.651 26.8402 224.651 26.1644V23.2055C224.651 22.5845 224.55 22.0548 224.349 21.6164C224.148 21.1781 223.874 20.8493 223.527 20.6301C223.18 20.3927 222.778 20.274 222.322 20.274C221.865 20.274 221.445 20.3927 221.062 20.6301C220.696 20.8493 220.395 21.1781 220.157 21.6164C219.938 22.0548 219.829 22.5936 219.829 23.2329V26.1918C219.829 26.8676 219.938 27.4338 220.157 27.8904C220.377 28.347 220.669 28.6941 221.034 28.9315C221.418 29.1507 221.829 29.2603 222.267 29.2603Z" fill="#010D4C"/>
<path d="M202.862 31.9991C201.438 31.9991 200.315 31.6064 199.493 30.821C198.689 30.0173 198.287 28.8758 198.287 27.3963V17.7251H202.588V26.4922C202.588 27.2776 202.753 27.8712 203.082 28.273C203.429 28.6566 203.94 28.8484 204.616 28.8484C205.054 28.8484 205.447 28.7479 205.794 28.547C206.159 28.3278 206.442 28.0356 206.643 27.6703C206.862 27.2867 206.972 26.8758 206.972 26.4374V17.7251H211.273V28.273C211.273 28.6201 211.356 28.8758 211.52 29.0402C211.703 29.1863 211.894 29.2593 212.095 29.2593C212.278 29.2593 212.461 29.2319 212.643 29.1772C212.826 29.1041 212.999 29.031 213.164 28.958V31.3963C212.926 31.579 212.607 31.7251 212.205 31.8347C211.803 31.9443 211.301 31.9991 210.698 31.9991C209.986 31.9991 209.401 31.9077 208.945 31.7251C208.488 31.5242 208.132 31.2502 207.876 30.9032C207.62 30.5561 207.429 30.1635 207.301 29.7251C206.844 30.4374 206.223 30.9945 205.438 31.3963C204.652 31.7982 203.794 31.9991 202.862 31.9991Z" fill="#010D4C"/>
<path d="M179.68 31.7242V12.9297H184.282V20.2996H190.282V12.9297H194.858V31.7242H190.31V23.9434H184.31V31.7242H179.68Z" fill="#010D4C"/>
<path d="M156.678 31.7251L161.5 24.3826L157.116 17.7251H162.075L164.431 21.6429H164.513L166.897 17.7251H171.554L167.089 24.4922L171.828 31.7251H166.87L164.157 27.2045H164.075L161.335 31.7251H156.678Z" fill="#010D4C"/>
<path d="M150.43 31.726V17.726H154.731V31.726H150.43ZM150.375 15.2329V12H154.759V15.2329H150.375Z" fill="#010D4C"/>
<path d="M136.598 31.7256V17.7256H139.831L140.324 19.753C140.378 19.68 140.479 19.5247 140.625 19.2873C140.789 19.0316 141.027 18.7667 141.337 18.4928C141.648 18.2005 142.031 17.9539 142.488 17.753C142.945 17.5521 143.483 17.4517 144.105 17.4517C145.036 17.4517 145.794 17.6252 146.378 17.9722C146.963 18.3192 147.392 18.8215 147.666 19.4791C147.958 20.1183 148.105 20.8855 148.105 21.7804C148.105 21.9813 148.095 22.2188 148.077 22.4928C148.059 22.7485 148.041 22.9859 148.022 23.2051H144.461V22.6023C144.461 22.2918 144.397 21.9813 144.269 21.6708C144.159 21.3603 143.977 21.1138 143.721 20.9311C143.465 20.7302 143.118 20.6297 142.68 20.6297C142.351 20.6297 142.068 20.6937 141.831 20.8215C141.593 20.9494 141.401 21.1229 141.255 21.3421C141.109 21.543 140.999 21.7713 140.926 22.027C140.872 22.2644 140.844 22.511 140.844 22.7667V31.7256H136.598Z" fill="#010D4C"/>
<path d="M130.748 32C129.889 32 129.131 31.8904 128.474 31.6712C127.816 31.452 127.296 31.0776 126.912 30.5479C126.547 30 126.364 29.2785 126.364 28.3835V20.8767H124.83V17.726H126.501L128.008 13.2603H130.666V17.726H133.926V20.8767H130.666V27.3698C130.666 28.1735 130.83 28.694 131.159 28.9315C131.488 29.1507 131.844 29.2603 132.227 29.2603C132.428 29.2603 132.702 29.2237 133.049 29.1507C133.415 29.0593 133.707 28.968 133.926 28.8767V31.452C133.67 31.5616 133.341 31.6621 132.94 31.7534C132.556 31.8447 132.163 31.9087 131.762 31.9452C131.378 31.9817 131.04 32 130.748 32Z" fill="#010D4C"/>
<path d="M114.216 32C113.084 32 112.088 31.7443 111.23 31.2329C110.39 30.7032 109.732 29.9087 109.257 28.8493C108.782 27.7717 108.545 26.4201 108.545 24.7945V24.4932C108.545 22.9224 108.801 21.6164 109.312 20.5753C109.823 19.5342 110.499 18.758 111.339 18.2466C112.198 17.7169 113.12 17.4521 114.107 17.4521C115.075 17.4521 115.878 17.6347 116.518 18C117.157 18.347 117.641 18.7854 117.97 19.3151V12H122.271V31.726H118.874L118.435 29.9178C118.015 30.484 117.458 30.9772 116.764 31.3973C116.088 31.7991 115.239 32 114.216 32ZM115.531 29.2603C115.988 29.2603 116.399 29.1507 116.764 28.9315C117.129 28.6941 117.422 28.347 117.641 27.8904C117.86 27.4338 117.97 26.8676 117.97 26.1918V23.2329C117.97 22.5936 117.86 22.0548 117.641 21.6164C117.422 21.1781 117.129 20.8493 116.764 20.6301C116.399 20.3927 115.988 20.274 115.531 20.274C114.855 20.274 114.28 20.5388 113.805 21.0685C113.349 21.5799 113.12 22.3014 113.12 23.2329V26.1644C113.12 26.8402 113.221 27.4064 113.422 27.863C113.641 28.3196 113.933 28.6667 114.298 28.9041C114.664 29.1416 115.075 29.2603 115.531 29.2603Z" fill="#010D4C"/>
<path d="M96.5109 31.9991C95.0862 31.9991 93.9629 31.6064 93.141 30.821C92.3374 30.0173 91.9355 28.8758 91.9355 27.3963V17.7251H96.2369V26.4922C96.2369 27.2776 96.4013 27.8712 96.7301 28.273C97.0771 28.6566 97.5885 28.8484 98.2643 28.8484C98.7027 28.8484 99.0954 28.7479 99.4424 28.547C99.8077 28.3278 100.091 28.0356 100.292 27.6703C100.511 27.2867 100.62 26.8758 100.62 26.4374V17.7251H104.922V28.273C104.922 28.6201 105.004 28.8758 105.168 29.0402C105.351 29.1863 105.543 29.2593 105.744 29.2593C105.926 29.2593 106.109 29.2319 106.292 29.1772C106.474 29.1041 106.648 29.031 106.812 28.958V31.3963C106.575 31.579 106.255 31.7251 105.853 31.8347C105.452 31.9443 104.949 31.9991 104.347 31.9991C103.634 31.9991 103.05 31.9077 102.593 31.7251C102.136 31.5242 101.78 31.2502 101.525 30.9032C101.269 30.5561 101.077 30.1635 100.949 29.7251C100.493 30.4374 99.8716 30.9945 99.0862 31.3963C98.3008 31.7982 97.4424 31.9991 96.5109 31.9991Z" fill="#010D4C"/>
<path d="M81.7634 31.9996C80.4484 31.9996 79.2703 31.7074 78.2292 31.1229C77.1881 30.5384 76.3662 29.7256 75.7634 28.6845C75.179 27.6252 74.8867 26.3923 74.8867 24.9859V24.4654C74.8867 23.0407 75.179 21.8078 75.7634 20.7667C76.3662 19.7074 77.1881 18.8946 78.2292 18.3284C79.2703 17.7439 80.4484 17.4517 81.7634 17.4517H82.421C83.736 17.4517 84.9141 17.7439 85.9552 18.3284C86.9963 18.8946 87.8091 19.7074 88.3936 20.7667C88.9963 21.8078 89.2977 23.0407 89.2977 24.4654V24.9859C89.2977 26.3923 88.9963 27.6252 88.3936 28.6845C87.8091 29.7439 86.9963 30.5658 85.9552 31.1503C84.9141 31.7165 83.736 31.9996 82.421 31.9996H81.7634ZM82.0922 29.2599C82.5854 29.2599 83.0237 29.1412 83.4073 28.9037C83.8091 28.6663 84.1287 28.3284 84.3662 27.89C84.6036 27.4334 84.7223 26.9037 84.7223 26.301V23.1503C84.7223 22.5293 84.6036 21.9996 84.3662 21.5612C84.1287 21.1229 83.8091 20.785 83.4073 20.5475C83.0237 20.3101 82.5854 20.1914 82.0922 20.1914C81.599 20.1914 81.1516 20.3101 80.7497 20.5475C80.3662 20.785 80.0557 21.1229 79.8182 21.5612C79.5808 21.9996 79.4621 22.5293 79.4621 23.1503V26.301C79.4621 26.9037 79.5808 27.4334 79.8182 27.89C80.0557 28.3284 80.3662 28.6663 80.7497 28.9037C81.1516 29.1412 81.599 29.2599 82.0922 29.2599Z" fill="#010D4C"/>
<path d="M67.748 31.726V12H72.0494V31.726H67.748Z" fill="#010D4C"/>
<path d="M56.8851 31.9987C55.7527 31.9987 54.6842 31.8343 53.6796 31.5056C52.6933 31.1585 51.8257 30.638 51.0769 29.9439C50.3463 29.2316 49.7709 28.3458 49.3508 27.2864C48.9307 26.2088 48.7207 24.9394 48.7207 23.4782V21.1768C48.7207 19.7521 48.9307 18.5101 49.3508 17.4508C49.7892 16.3914 50.3828 15.5056 51.1317 14.7932C51.8805 14.0809 52.739 13.5512 53.707 13.2042C54.6933 12.8389 55.7344 12.6562 56.8303 12.6562H57.433C58.4741 12.6562 59.4513 12.8115 60.3645 13.122C61.296 13.4142 62.1088 13.88 62.8029 14.5193C63.497 15.1403 64.0358 15.9439 64.4193 16.9302C64.8212 17.8983 65.0221 19.0581 65.0221 20.4097H60.7207C60.7207 19.2955 60.5746 18.4279 60.2823 17.8069C60.0084 17.1859 59.5974 16.7476 59.0495 16.4919C58.5015 16.2362 57.8531 16.1083 57.1043 16.1083C56.5746 16.1083 56.0906 16.1905 55.6522 16.3549C55.2321 16.501 54.8668 16.7384 54.5563 17.0672C54.2458 17.396 53.9992 17.8252 53.8166 18.3549C53.6522 18.8663 53.57 19.4873 53.57 20.2179V24.4371C53.57 25.3868 53.7161 26.1722 54.0084 26.7932C54.3006 27.396 54.7116 27.8435 55.2413 28.1357C55.7709 28.4097 56.3919 28.5467 57.1043 28.5467C57.9444 28.5467 58.6385 28.4188 59.1865 28.1631C59.7527 27.9074 60.1819 27.4782 60.4741 26.8754C60.7664 26.2544 60.9125 25.3868 60.9125 24.2727H65.0221C65.0221 25.533 64.8303 26.6471 64.4467 27.6152C64.0632 28.5832 63.5244 29.396 62.8303 30.0535C62.1362 30.6928 61.3326 31.1768 60.4193 31.5056C59.5061 31.8343 58.5289 31.9987 57.4878 31.9987H56.8851Z" fill="#010D4C"/>
<defs>
<linearGradient id="paint0_linear_39_317" x1="36.52" y1="10.516" x2="-2.28199e-08" y2="32.824" gradientUnits="userSpaceOnUse">
<stop stop-color="#3DDBFE"/>
<stop offset="0.76221" stop-color="#0066FF"/>
</linearGradient>
<linearGradient id="paint1_linear_39_317" x1="24.1298" y1="21.616" x2="22.1073" y2="26.5297" gradientUnits="userSpaceOnUse">
<stop stop-color="#021CA1"/>
<stop offset="1" stop-color="#66A2FB"/>
</linearGradient>
<linearGradient id="paint2_linear_39_317" x1="24.1298" y1="25.2336" x2="22.1073" y2="30.1474" gradientUnits="userSpaceOnUse">
<stop stop-color="#3DDBFE"/>
<stop offset="1" stop-color="#0066FF"/>
</linearGradient>
<linearGradient id="paint3_linear_39_317" x1="24.1298" y1="25.2336" x2="22.1073" y2="30.1474" gradientUnits="userSpaceOnUse">
<stop stop-color="#021CA1"/>
<stop offset="1" stop-color="#66A2FB"/>
</linearGradient>
</defs>
</svg>
